<svg xmlns="http://www.w3.org/2000/svg" xmlns:xlink="http://www.w3.org/1999/xlink" preserveAspectRatio="xMidYMid" width="330" height="330" viewBox="0 0 330 330">
  <defs>
    <style>

      .cls-3 {
        fill: #ffffff;
      }

      .cls-4 {
        fill: url(#linear-gradient-1);
      }

      .cls-5 {
        fill: #99fafe;
      }

      .cls-6 {
        fill: #99caed;
      }

      .cls-7 {
        fill: #365761;
      }

      .cls-8 {
        fill: #e58d62;
      }

      .cls-9 {
        fill: #dd6f54;
      }

      .cls-12 {
        fill: #f5c47c;
      }

      .cls-14 {
        fill: #2c3438;
      }

      .cls-15 {
        fill: #505f67;
      }

      .cls-20 {
        fill: #087b9c;
      }

      .cls-21 {
        fill: #000000;
      }

      .cls-31 {
        fill: #333333;
      }
    </style>

    <linearGradient id="linear-gradient-1" gradientUnits="userSpaceOnUse" x1="322.094" y1="165" x2="7.906" y2="165">
      <stop offset="0" stop-color="#99caed"/>
      <stop offset="1" stop-color="#9bfafe"/>
    </linearGradient>
  </defs>
  <g id="програмистsvg">
    <circle id="circle-1" class="cls-3" cx="165" cy="165" r="165"/>
    <circle id="circle-2" class="cls-4" cx="165" cy="165" r="158"/>
    <path d="M294.002,219.973 C294.002,219.973 272.609,231.167 272.609,231.167 C272.191,231.387 271.743,231.491 271.301,231.491 C270.289,231.491 269.311,230.947 268.807,229.995 C268.083,228.627 268.612,226.935 269.987,226.215 C269.987,226.215 286.647,217.497 286.647,217.497 C286.647,217.497 269.987,208.779 269.987,208.779 C268.612,208.059 268.083,206.367 268.807,204.998 C269.531,203.631 271.236,203.107 272.609,203.826 C272.609,203.826 294.002,215.020 294.002,215.020 C294.927,215.504 295.506,216.458 295.506,217.497 C295.506,218.535 294.927,219.490 294.002,219.973 ZM256.322,239.559 C256.066,240.714 255.065,241.498 253.955,241.498 C253.776,241.498 253.596,241.477 253.415,241.434 C252.106,241.130 251.285,239.797 251.583,238.457 C251.583,238.457 261.304,194.666 261.304,194.666 C261.602,193.326 262.903,192.488 264.212,192.791 C265.521,193.095 266.341,194.428 266.043,195.769 C266.043,195.769 256.322,239.559 256.322,239.559 ZM248.193,229.995 C247.688,230.947 246.711,231.491 245.699,231.491 C245.257,231.491 244.809,231.387 244.391,231.167 C244.391,231.167 222.998,219.973 222.998,219.973 C222.073,219.490 221.494,218.535 221.494,217.497 C221.494,216.458 222.073,215.504 222.998,215.020 C222.998,215.020 244.391,203.826 244.391,203.826 C245.764,203.107 247.469,203.631 248.193,204.998 C248.917,206.367 248.388,208.059 247.013,208.779 C247.013,208.779 230.353,217.497 230.353,217.497 C230.353,217.497 247.013,226.215 247.013,226.215 C248.388,226.935 248.917,228.627 248.193,229.995 Z" id="path-1" class="cls-5" fill-rule="evenodd"/>
    <path d="M92.773,233.500 C91.266,233.500 90.045,232.276 90.045,230.766 C90.045,230.766 90.045,203.969 90.045,203.969 C90.045,203.969 84.227,203.969 84.227,203.969 C82.721,203.969 81.500,202.745 81.500,201.234 C81.500,199.724 82.721,198.500 84.227,198.500 C84.227,198.500 92.773,198.500 92.773,198.500 C94.279,198.500 95.500,199.724 95.500,201.234 C95.500,201.234 95.500,230.766 95.500,230.766 C95.500,232.276 94.279,233.500 92.773,233.500 ZM59.500,232.500 C50.111,232.500 42.500,224.889 42.500,215.500 C42.500,206.111 50.111,198.500 59.500,198.500 C68.889,198.500 76.500,206.111 76.500,215.500 C76.500,224.889 68.889,232.500 59.500,232.500 ZM59.500,203.500 C52.883,203.500 47.500,208.883 47.500,215.500 C47.500,222.117 52.883,227.500 59.500,227.500 C66.117,227.500 71.500,222.117 71.500,215.500 C71.500,208.883 66.117,203.500 59.500,203.500 Z" id="path-2" class="cls-6" fill-rule="evenodd"/>
    <rect id="rect-1" class="cls-7" x="129" y="239" width="68" height="26"/>
    <rect id="rect-2" class="cls-8" x="133" y="199" width="61" height="55"/>
    <path d="M194.500,215.095 C191.216,217.694 187.497,219.500 183.500,219.500 C169.648,219.500 155.291,219.500 152.500,219.500 C146.833,219.500 144.833,217.833 142.500,215.500 C140.167,213.167 134.500,206.500 134.500,206.500 C134.500,206.500 160.400,199.500 160.400,199.500 C160.400,199.500 194.500,199.500 194.500,199.500 C194.500,199.500 194.500,215.095 194.500,215.095 Z" id="path-3" class="cls-9" fill-rule="evenodd"/>
    <path d="M112.824,130.167 C112.824,130.167 110.631,125.500 105.846,125.500 C101.061,125.500 92.224,133.262 98.868,146.500 C106.245,161.200 100.861,167.500 107.840,167.500 C114.818,167.500 115.815,162.833 115.815,162.833 C115.815,162.833 112.824,130.167 112.824,130.167 Z" id="path-4" class="cls-8" fill-rule="evenodd"/>
    <path d="M211.460,130.167 C211.460,130.167 213.611,125.500 218.304,125.500 C222.996,125.500 231.662,133.262 225.147,146.500 C217.913,161.200 223.192,167.500 216.348,167.500 C209.505,167.500 208.528,162.833 208.528,162.833 C208.528,162.833 211.460,130.167 211.460,130.167 Z" id="path-5" class="cls-9" fill-rule="evenodd"/>
    <path d="M175.500,212.500 C169.855,212.500 164.618,212.500 162.500,212.500 C161.867,212.500 161.500,212.500 161.500,212.500 C159.382,212.500 154.145,212.500 148.500,212.500 C142.500,212.500 110.500,191.000 110.500,181.000 C110.500,144.263 113.500,78.500 113.500,78.500 C113.500,72.977 117.977,68.500 123.500,68.500 C123.500,68.500 161.500,68.500 161.500,68.500 C161.500,68.500 162.500,68.500 162.500,68.500 C162.500,68.500 200.500,68.500 200.500,68.500 C206.023,68.500 210.500,72.977 210.500,78.500 C210.500,78.500 213.500,144.263 213.500,181.000 C213.500,191.000 181.500,212.500 175.500,212.500 Z" id="path-6" class="cls-12" fill-rule="evenodd"/>
    <path d="M213.500,181.000 C213.500,191.000 181.500,212.500 175.500,212.500 C171.192,212.500 167.128,212.500 164.500,212.500 C167.300,212.500 170.500,210.100 170.500,206.500 C170.500,201.205 170.500,195.044 170.500,188.496 C173.015,188.494 174.498,188.491 174.498,188.491 C175.604,188.489 176.499,187.593 176.497,186.491 C176.495,185.389 175.598,184.498 174.494,184.498 C174.493,184.498 174.491,184.498 174.490,184.498 C174.490,184.498 173.010,184.501 170.500,184.504 C170.500,177.816 170.500,170.870 170.500,164.186 C168.528,165.636 166.116,166.500 163.500,166.500 C159.910,166.500 156.697,164.882 154.498,162.331 C155.983,163.034 157.631,163.437 159.375,163.437 C164.640,163.437 169.071,159.856 170.500,154.955 C170.500,141.330 170.500,130.088 170.500,126.500 C170.500,112.967 184.100,110.500 186.500,110.500 C188.900,110.500 189.500,110.500 189.500,105.500 C189.500,101.015 189.500,74.018 189.500,68.500 C189.500,68.500 200.500,68.500 200.500,68.500 C206.023,68.500 210.500,72.977 210.500,78.500 C210.500,78.500 213.500,144.263 213.500,181.000 Z" id="path-7" class="cls-8" fill-rule="evenodd"/>
    <path d="M220.500,92.500 C220.500,111.500 212.500,128.500 212.500,128.500 C212.500,128.500 212.500,132.500 212.500,132.500 C212.500,132.500 207.500,132.500 207.500,132.500 C207.500,132.500 207.500,126.500 207.500,116.500 C207.500,106.500 199.500,102.000 199.500,90.500 C199.500,79.000 195.500,78.500 190.500,83.500 C186.570,87.430 170.291,90.123 163.500,91.096 C163.500,91.017 160.500,91.144 160.500,91.096 C153.709,90.123 137.430,87.430 133.500,83.500 C128.500,78.500 124.500,79.000 124.500,90.500 C124.500,102.000 116.500,106.500 116.500,116.500 C116.500,126.500 116.500,132.500 116.500,132.500 C116.500,132.500 111.500,132.500 111.500,132.500 C111.500,132.500 111.500,128.500 111.500,128.500 C111.500,128.500 103.500,111.500 103.500,92.500 C103.500,73.918 116.433,44.259 160.500,43.535 C160.500,43.523 160.500,43.512 160.500,43.500 C161.011,43.500 161.497,43.513 162.000,43.517 C162.503,43.513 162.989,43.500 163.500,43.500 C163.500,43.512 163.500,43.523 163.500,43.535 C207.567,44.259 220.500,73.918 220.500,92.500 Z" id="path-8" class="cls-14" fill-rule="evenodd"/>
    <path d="M130.203,67.486 C128.759,67.486 127.387,66.626 126.792,65.194 C126.000,63.289 126.883,61.095 128.766,60.293 C129.511,59.975 147.170,52.514 159.793,52.514 C161.836,52.514 163.492,54.190 163.492,56.257 C163.492,58.324 161.836,60.000 159.793,60.000 C148.670,60.000 131.805,67.121 131.636,67.192 C131.167,67.391 130.681,67.486 130.203,67.486 Z" id="path-9" class="cls-15" fill-rule="evenodd"/>
    <path d="M139.775,74.525 C138.559,74.525 137.381,73.890 136.753,72.768 C135.836,71.126 136.432,69.065 138.092,68.154 C138.441,67.963 146.763,63.475 158.718,63.475 C160.621,63.475 162.163,64.998 162.163,66.876 C162.163,68.755 160.621,70.277 158.718,70.277 C148.633,70.277 141.501,74.068 141.430,74.106 C140.904,74.390 140.336,74.525 139.775,74.525 Z" id="path-10" class="cls-15" fill-rule="evenodd"/>
    <g id="глаз">
      <circle id="circle-3" class="cls-9" cx="188" cy="136" r="14"/>
      <path d="M188.495,126.754 C194.942,126.754 200.169,130.059 200.169,136.500 C200.169,142.940 194.942,146.161 188.495,146.161 C182.047,146.161 176.821,142.940 176.821,136.500 C176.821,130.059 182.047,126.754 188.495,126.754 Z" id="path-11" class="cls-3" fill-rule="evenodd"/>
      <path d="M189.062,135.771 C189.062,135.771 192.482,137.743 192.482,137.743 C191.949,139.451 190.373,140.698 188.488,140.698 C186.167,140.698 184.286,138.818 184.286,136.500 C184.286,134.181 186.167,132.302 188.488,132.302 C189.920,132.302 191.181,133.020 191.940,134.112 C191.940,134.112 189.062,135.771 189.062,135.771 Z" id="path-12" class="cls-20" fill-rule="evenodd"/>
      <path d="M189.062,135.771 C189.062,135.771 190.441,136.566 190.441,136.566 C190.405,137.617 189.547,138.459 188.486,138.459 C187.403,138.459 186.525,137.582 186.525,136.500 C186.525,135.418 187.403,134.541 188.486,134.541 C189.088,134.541 189.619,134.817 189.979,135.242 C189.979,135.242 189.062,135.771 189.062,135.771 Z" id="path-13" class="cls-21" fill-rule="evenodd"/>
    </g>
    <g id="глаз-копия-2">
      <circle id="circle-4" class="cls-9" cx="137" cy="136" r="14"/>
      <path d="M137.495,126.754 C143.942,126.754 149.169,130.059 149.169,136.500 C149.169,142.940 143.942,146.161 137.495,146.161 C131.047,146.161 125.821,142.940 125.821,136.500 C125.821,130.059 131.047,126.754 137.495,126.754 Z" id="path-14" class="cls-3" fill-rule="evenodd"/>
      <path d="M138.062,135.771 C138.062,135.771 141.482,137.743 141.482,137.743 C140.949,139.451 139.373,140.698 137.488,140.698 C135.167,140.698 133.286,138.818 133.286,136.500 C133.286,134.181 135.167,132.302 137.488,132.302 C138.920,132.302 140.181,133.020 140.940,134.112 C140.940,134.112 138.062,135.771 138.062,135.771 Z" id="path-15" class="cls-20" fill-rule="evenodd"/>
      <path d="M138.062,135.771 C138.062,135.771 139.441,136.566 139.441,136.566 C139.405,137.617 138.547,138.459 137.486,138.459 C136.403,138.459 135.525,137.582 135.525,136.500 C135.525,135.418 136.403,134.541 137.486,134.541 C138.088,134.541 138.619,134.817 138.979,135.242 C138.979,135.242 138.062,135.771 138.062,135.771 Z" id="path-16" class="cls-21" fill-rule="evenodd"/>
    </g>
    <path d="M175.030,184.505 C175.030,184.505 156.997,184.505 156.997,184.505 C154.834,184.505 150.887,182.826 149.729,182.312 C148.669,181.842 148.214,180.649 148.713,179.648 C149.211,178.647 150.475,178.219 151.535,178.688 C153.507,179.564 156.173,180.500 156.997,180.500 C156.997,180.500 175.030,180.500 175.030,180.500 C175.646,180.411 178.105,179.163 180.218,177.833 C181.193,177.218 182.510,177.468 183.160,178.388 C183.810,179.308 183.547,180.552 182.572,181.165 C180.589,182.413 176.974,184.505 175.030,184.505 Z" id="path-17" class="cls-9" fill-rule="evenodd"/>
    <path d="M172.660,121.499 C172.447,121.499 172.230,121.467 172.016,121.400 C170.889,121.046 170.252,119.872 170.593,118.749 C170.708,118.371 173.563,109.501 187.363,109.501 C198.288,109.501 202.128,117.259 202.286,117.590 C202.799,118.660 202.339,119.939 201.261,120.447 C200.188,120.954 198.903,120.503 198.387,119.443 C198.255,119.179 195.444,113.791 187.363,113.791 C176.917,113.791 174.809,119.759 174.725,120.013 C174.424,120.917 173.573,121.499 172.660,121.499 Z" id="path-18" class="cls-14" fill-rule="evenodd"/>
    <path d="M151.340,121.499 C151.553,121.499 151.770,121.467 151.984,121.400 C153.111,121.046 153.748,119.872 153.407,118.749 C153.292,118.371 150.437,109.501 136.637,109.501 C125.711,109.501 121.872,117.259 121.714,117.590 C121.201,118.660 121.661,119.939 122.739,120.447 C123.812,120.954 125.097,120.503 125.613,119.443 C125.745,119.179 128.556,113.791 136.637,113.791 C147.083,113.791 149.191,119.759 149.275,120.013 C149.576,120.917 150.427,121.499 151.340,121.499 Z" id="path-19" class="cls-14" fill-rule="evenodd"/>
    <path d="M200.500,153.500 C200.500,153.500 180.500,153.500 180.500,153.500 C174.977,153.500 170.500,149.023 170.500,143.500 C170.500,143.500 170.500,133.500 170.500,133.500 C170.500,132.710 170.601,131.944 170.775,131.207 C169.265,129.996 166.674,128.506 163.037,128.506 C159.289,128.506 156.776,130.262 155.346,131.692 C155.346,131.692 155.327,131.685 155.327,131.685 C155.436,132.275 155.500,132.879 155.500,133.500 C155.500,133.500 155.500,143.500 155.500,143.500 C155.500,149.023 151.023,153.500 145.500,153.500 C145.500,153.500 125.500,153.500 125.500,153.500 C119.977,153.500 115.500,149.023 115.500,143.500 C115.500,143.500 115.500,133.500 115.500,133.500 C115.500,127.977 119.977,123.500 125.500,123.500 C125.500,123.500 145.500,123.500 145.500,123.500 C148.907,123.500 151.912,125.207 153.718,127.809 C155.772,126.123 158.834,124.501 163.037,124.501 C167.242,124.501 170.409,126.034 172.496,127.524 C174.319,125.085 177.221,123.500 180.500,123.500 C180.500,123.500 200.500,123.500 200.500,123.500 C206.023,123.500 210.500,127.977 210.500,133.500 C210.500,133.500 210.500,143.500 210.500,143.500 C210.500,149.023 206.023,153.500 200.500,153.500 ZM145.500,127.500 C145.500,127.500 125.500,127.500 125.500,127.500 C122.192,127.500 119.500,130.192 119.500,133.500 C119.500,133.500 119.500,143.500 119.500,143.500 C119.500,146.808 122.192,149.500 125.500,149.500 C125.500,149.500 145.500,149.500 145.500,149.500 C148.808,149.500 151.500,146.808 151.500,143.500 C151.500,143.500 151.500,133.500 151.500,133.500 C151.500,130.192 148.808,127.500 145.500,127.500 ZM206.500,133.500 C206.500,130.192 203.808,127.500 200.500,127.500 C200.500,127.500 180.500,127.500 180.500,127.500 C177.191,127.500 174.500,130.192 174.500,133.500 C174.500,133.500 174.500,143.500 174.500,143.500 C174.500,146.808 177.191,149.500 180.500,149.500 C180.500,149.500 200.500,149.500 200.500,149.500 C203.808,149.500 206.500,146.808 206.500,143.500 C206.500,143.500 206.500,133.500 206.500,133.500 Z" id="path-20" class="cls-14" fill-rule="evenodd"/>
    <path d="M165.000,321.600 C133.020,321.600 103.285,312.005 78.500,295.550 C78.500,294.371 78.500,293.320 78.500,292.464 C78.500,272.096 98.464,246.571 130.878,239.487 C132.923,245.693 151.045,250.443 164.500,250.444 C164.500,250.444 164.500,250.478 164.500,250.478 C177.499,250.247 195.128,245.597 197.122,239.550 C229.536,246.630 249.500,272.144 249.500,292.500 C249.500,293.654 249.500,295.143 249.500,296.866 C225.123,312.520 196.122,321.600 165.000,321.600 Z" id="path-21" class="cls-31" fill-rule="evenodd"/>
  </g>
</svg>
